# xmcd CD database file
#
# Track frame offsets:
#	150
#	17715
#	35507
#	53082
#
# Disc length: 943 seconds
#
# Revision: 1
# Processed by: cddbd v1.5.2PL0 Copyright (c) Steve Scherf et al.
# Submitted via: CDex 1.70beta2
#
DISCID=2903ad04
DTITLE=elika - 君、微笑んだ夜
DYEAR=1998
DGENRE=Anime
TTITLE0=君、微笑んだ夜
TTITLE1=臆病emotion
TTITLE2=君、微笑んだ夜 (Off Vocal Version)
TTITLE3=臆病emotion (Off Vocal Version)
EXTD=YEAR: 1998
EXTT0=
EXTT1=
EXTT2=
EXTT3=
PLAYORDER=
